<svg width="28" height="28" viewBox="0 0 28 28" fill="none" xmlns="http://www.w3.org/2000/svg">
<path d="M3 10.124L13.654 15.665C13.7609 15.7206 13.8795 15.7496 14 15.7496C14.1205 15.7496 14.2391 15.7206 14.346 15.665L25 10.125V19.75C25.0001 20.5801 24.6824 21.3788 24.1123 21.9822C23.5422 22.5856 22.7628 22.948 21.934 22.995L21.75 23H6.25C5.41986 23.0001 4.62117 22.6824 4.01777 22.1123C3.41437 21.5422 3.052 20.7628 3.005 19.934L3 19.75V10.124ZM6.25 5H21.75C22.5801 4.99995 23.3788 5.31755 23.9822 5.88767C24.5856 6.45779 24.948 7.23719 24.995 8.066L25 8.25V8.434L14 14.154L3 8.434V8.25C2.99995 7.41986 3.31755 6.62117 3.88767 6.01777C4.45779 5.41437 5.23719 5.052 6.066 5.005L6.25 5H21.75H6.25Z" fill="#ad86df"/>
</svg>
