<svg width="28" height="28" viewBox="0 0 28 28" fill="none" xmlns="http://www.w3.org/2000/svg">
<path fill-rule="evenodd" clip-rule="evenodd" d="M8.70925 1.24375C10.0777 1.18075 10.5141 1.16675 14.0001 1.16675C17.4861 1.16675 17.9224 1.18191 19.2897 1.24375C20.6571 1.30558 21.5904 1.52375 22.4071 1.83991C23.2622 2.16308 24.0381 2.66825 24.6797 3.32158C25.3331 3.96208 25.8371 4.73675 26.1591 5.59308C26.4764 6.40975 26.6934 7.34308 26.7564 8.70808C26.8194 10.0789 26.8334 10.5152 26.8334 14.0001C26.8334 17.4861 26.8182 17.9224 26.7564 19.2909C26.6946 20.6559 26.4764 21.5892 26.1591 22.4059C25.8371 23.2624 25.3322 24.0383 24.6797 24.6797C24.0381 25.3331 23.2622 25.8371 22.4071 26.1591C21.5904 26.4764 20.6571 26.6934 19.2921 26.7564C17.9224 26.8194 17.4861 26.8334 14.0001 26.8334C10.5141 26.8334 10.0777 26.8182 8.70925 26.7564C7.34425 26.6946 6.41091 26.4764 5.59425 26.1591C4.73782 25.837 3.96187 25.3322 3.32041 24.6797C2.66752 24.0389 2.16228 23.2633 1.83991 22.4071C1.52375 21.5904 1.30675 20.6571 1.24375 19.2921C1.18075 17.9212 1.16675 17.4849 1.16675 14.0001C1.16675 10.5141 1.18191 10.0777 1.24375 8.71041C1.30558 7.34308 1.52375 6.40975 1.83991 5.59308C2.16276 4.73684 2.66839 3.96128 3.32158 3.32041C3.96213 2.66767 4.7373 2.16243 5.59308 1.83991C6.40975 1.52375 7.34308 1.30675 8.70808 1.24375H8.70925ZM19.1859 3.55375C17.8326 3.49191 17.4266 3.47908 14.0001 3.47908C10.5736 3.47908 10.1676 3.49191 8.81425 3.55375C7.56241 3.61091 6.88341 3.81975 6.43075 3.99591C5.83225 4.22925 5.40408 4.50575 4.95491 4.95491C4.52913 5.36914 4.20146 5.87341 3.99591 6.43075C3.81975 6.88341 3.61091 7.56241 3.55375 8.81425C3.49191 10.1676 3.47908 10.5736 3.47908 14.0001C3.47908 17.4266 3.49191 17.8326 3.55375 19.1859C3.61091 20.4377 3.81975 21.1167 3.99591 21.5694C4.20125 22.1259 4.52908 22.6311 4.95491 23.0452C5.36908 23.4711 5.87425 23.7989 6.43075 24.0042C6.88341 24.1804 7.56241 24.3892 8.81425 24.4464C10.1676 24.5082 10.5724 24.5211 14.0001 24.5211C17.4277 24.5211 17.8326 24.5082 19.1859 24.4464C20.4377 24.3892 21.1167 24.1804 21.5694 24.0042C22.1679 23.7709 22.5961 23.4944 23.0452 23.0452C23.4711 22.6311 23.7989 22.1259 24.0042 21.5694C24.1804 21.1167 24.3892 20.4377 24.4464 19.1859C24.5082 17.8326 24.5211 17.4266 24.5211 14.0001C24.5211 10.5736 24.5082 10.1676 24.4464 8.81425C24.3892 7.56241 24.1804 6.88341 24.0042 6.43075C23.7709 5.83225 23.4944 5.40408 23.0452 4.95491C22.631 4.52916 22.1267 4.20149 21.5694 3.99591C21.1167 3.81975 20.4377 3.61091 19.1859 3.55375ZM12.3609 17.9562C13.2764 18.3373 14.2957 18.3887 15.2448 18.1018C16.194 17.8148 17.014 17.2071 17.565 16.3827C18.1159 15.5582 18.3635 14.5681 18.2655 13.5814C18.1675 12.5946 17.7299 11.6725 17.0276 10.9726C16.5799 10.5251 16.0385 10.1825 15.4425 9.96942C14.8464 9.75631 14.2106 9.678 13.5807 9.74013C12.9507 9.80226 12.3424 10.0033 11.7995 10.3287C11.2566 10.6542 10.7926 11.0959 10.4409 11.6222C10.0893 12.1485 9.85863 12.7463 9.76568 13.3724C9.67273 13.9985 9.71976 14.6374 9.90338 15.2432C10.087 15.8489 10.4026 16.4065 10.8276 16.8756C11.2525 17.3447 11.7762 17.7138 12.3609 17.9562ZM9.33575 9.33575C9.94828 8.72322 10.6755 8.23733 11.4758 7.90584C12.2761 7.57434 13.1338 7.40372 14.0001 7.40372C14.8663 7.40372 15.7241 7.57434 16.5244 7.90584C17.3247 8.23733 18.0519 8.72322 18.6644 9.33575C19.2769 9.94828 19.7628 10.6755 20.0943 11.4758C20.4258 12.2761 20.5964 13.1338 20.5964 14.0001C20.5964 14.8663 20.4258 15.7241 20.0943 16.5244C19.7628 17.3247 19.2769 18.0519 18.6644 18.6644C17.4274 19.9015 15.7495 20.5964 14.0001 20.5964C12.2506 20.5964 10.5728 19.9015 9.33575 18.6644C8.09869 17.4274 7.40372 15.7495 7.40372 14.0001C7.40372 12.2506 8.09869 10.5728 9.33575 9.33575ZM22.0594 8.38608C22.2112 8.2429 22.3327 8.07071 22.4168 7.87972C22.5008 7.68873 22.5457 7.48281 22.5487 7.27417C22.5518 7.06552 22.5129 6.85839 22.4345 6.66503C22.356 6.47167 22.2396 6.29601 22.092 6.14846C21.9445 6.00091 21.7688 5.88446 21.5755 5.80602C21.3821 5.72757 21.175 5.68872 20.9663 5.69176C20.7577 5.6948 20.5518 5.73968 20.3608 5.82373C20.1698 5.90778 19.9976 6.02929 19.8544 6.18108C19.5759 6.47628 19.4235 6.86839 19.4294 7.27417C19.4353 7.67994 19.5991 8.06744 19.8861 8.3544C20.1731 8.64136 20.5606 8.80518 20.9663 8.8111C21.3721 8.81701 21.7642 8.66455 22.0594 8.38608Z" fill="#ad86df"/>
</svg>
