<svg width="28" height="28" viewBox="0 0 28 28" fill="none" xmlns="http://www.w3.org/2000/svg">
<path d="M23 10.5C23 5.81083 19.1892 2 14.5 2C9.81083 2 6 5.81083 6 10.5C6 16.875 14.5 26.0833 14.5 26.0833C14.5 26.0833 23 16.875 23 10.5ZM11.6667 10.5C11.6667 8.94167 12.9417 7.66667 14.5 7.66667C16.0583 7.66667 17.3333 8.94167 17.3333 10.5C17.3333 11.2514 17.0348 11.9721 16.5035 12.5035C15.9721 13.0348 15.2514 13.3333 14.5 13.3333C13.7486 13.3333 13.0279 13.0348 12.4965 12.5035C11.9652 11.9721 11.6667 11.2514 11.6667 10.5Z" fill="#ad86df"/>
</svg>
