<svg width="28" height="28" viewBox="0 0 28 28" fill="none" xmlns="http://www.w3.org/2000/svg">
<path fill-rule="evenodd" clip-rule="evenodd" d="M5.59254 3.70149C5.83313 3.46126 6.12203 3.2749 6.44009 3.15477C6.75816 3.03464 7.09812 2.98347 7.43745 3.00467C7.77678 3.02586 8.10773 3.11892 8.40837 3.27769C8.70902 3.43647 8.97249 3.65732 9.18132 3.92562L11.6495 7.09639C12.1018 7.67802 12.2613 8.43565 12.0826 9.15066L11.3305 12.1619C11.2916 12.3179 11.2937 12.4813 11.3366 12.6362C11.3794 12.7911 11.4617 12.9323 11.5752 13.0461L14.9536 16.4245C15.0675 16.5382 15.2089 16.6206 15.3641 16.6635C15.5193 16.7064 15.6829 16.7084 15.8391 16.6692L18.849 15.9171C19.2019 15.8289 19.5701 15.822 19.926 15.897C20.2819 15.9721 20.6161 16.127 20.9033 16.3502L24.0741 18.817C25.2139 19.7039 25.3184 21.3882 24.2982 22.4071L22.8764 23.8289C21.8589 24.8464 20.3382 25.2933 18.9205 24.7941C15.2921 23.5175 11.9977 21.4403 9.28169 18.7166C6.5582 16.001 4.48099 12.7071 3.20415 9.07915C2.7064 7.66289 3.15327 6.14076 4.17078 5.12325L5.59254 3.70149Z" fill="#ad86df"/>
</svg>
