<svg width="28" height="28" viewBox="0 0 28 28" fill="none" xmlns="http://www.w3.org/2000/svg">
<path fill-rule="evenodd" clip-rule="evenodd" d="M19.0406 16.247C18.7661 16.1097 17.4204 15.4484 17.1699 15.3563C16.9193 15.2651 16.737 15.22 16.5537 15.4945C16.3713 15.7671 15.8472 16.3842 15.6878 16.5666C15.5276 16.7499 15.3682 16.772 15.0947 16.6357C14.8211 16.4975 13.9387 16.2092 12.8933 15.2771C12.08 14.5513 11.5301 13.6551 11.3708 13.3806C11.2114 13.107 11.3533 12.9587 11.4905 12.8224C11.6139 12.6999 11.7641 12.5028 11.9013 12.3435C12.0385 12.1832 12.0837 12.069 12.1749 11.8857C12.267 11.7033 12.2209 11.544 12.1518 11.4067C12.0837 11.2695 11.5366 9.92194 11.3081 9.3739C11.0861 8.84059 10.8605 8.91336 10.6928 8.90415C10.5326 8.89678 10.3502 8.89494 10.1678 8.89494C9.98546 8.89494 9.68887 8.9631 9.43833 9.23758C9.18688 9.51114 8.48041 10.1734 8.48041 11.5209C8.48041 12.8675 9.46044 14.169 9.59768 14.3523C9.73492 14.5347 11.5273 17.2998 14.2731 18.4852C14.927 18.767 15.4364 18.9356 15.8334 19.0609C16.4892 19.27 17.086 19.2405 17.5576 19.1696C18.0827 19.0913 19.1769 18.5073 19.4053 17.8681C19.6328 17.2288 19.6328 16.6808 19.5647 16.5666C19.4965 16.4524 19.3151 16.3842 19.0406 16.247ZM14.0465 23.0657H14.0428C12.412 23.066 10.8111 22.6276 9.40794 21.7965L9.07635 21.5994L5.62968 22.5039L6.54983 19.1438L6.33338 18.7993C5.42164 17.348 4.93914 15.6683 4.94163 13.9544C4.94347 8.93454 9.02753 4.85048 14.0502 4.85048C16.4818 4.85048 18.7679 5.79919 20.4867 7.51977C21.3344 8.36401 22.0063 9.36797 22.4636 10.4736C22.9208 11.5792 23.1542 12.7645 23.1504 13.9609C23.1486 18.9807 19.0645 23.0657 14.0465 23.0657ZM21.7946 6.21276C20.7797 5.19121 19.5722 4.38123 18.2421 3.82975C16.9119 3.27826 15.4855 2.99625 14.0456 3.00004C8.00882 3.00004 3.09395 7.91399 3.09211 13.9535C3.08931 15.8756 3.59352 17.7644 4.55386 19.4293L3 25.1059L8.80648 23.5824C10.4127 24.4576 12.2127 24.9161 14.0419 24.9162H14.0465C20.0832 24.9162 24.9981 20.0022 24.9999 13.9618C25.0044 12.5224 24.7234 11.0964 24.1732 9.76631C23.623 8.43621 22.8146 7.2284 21.7946 6.21276Z" fill="#ad86df"/>
</svg>
